# xmcd
#
# Track frame offsets:
#	150
#	12587
#	24857
#	36202
#	49286
#	58893
#	69605
#	81209
#	93973
#	105628
#	116577
#	129516
#	140087
#	149507
#
# Disc length: 2126 seconds
#
# Revision: 1
# Processed by: cddbd v1.5.2PL0 Copyright (c) Steve Scherf et al.
# Submitted via: audiograbber 1.83.01
#
DISCID=cb084c0e
DTITLE=Various Artist - Mad About Bluegrass - CD3
DYEAR=2009
DGENRE=Bluegrass
TTITLE0=Flatt and Scruggs - Flint Hill Special
TTITLE1=Bill Monroe - Mule Skinner Blues
TTITLE2=Eric Weissberg - Jesse James - Hard Ain't It Hard
TTITLE3=The Louvin Brothers - The Family Who Prays
TTITLE4=The Dillards - Dooley
TTITLE5=Reno and Smiley - I'm Gone, Long Gone
TTITLE6=Jim Eanes - Rose Garden Waltz
TTITLE7=Charlie Monroe - Bringin' In The Georgia Mail
TTITLE8=Flatt and Scruggs - Your Love Is Like A Flower
TTITLE9=Bill Clifton - Blue Ridge Mountain Blues
TTITLE10=Jim and Jesse - My Garden Of Love
TTITLE11=Smiley Hobbs - Train 45
TTITLE12=The Osborne Brothers - Wild Mountain Honey
TTITLE13=The Stanley Brothers - Blue Moon Of Kentucky
EXTD=
EXTT0=
EXTT1=
EXTT2=
EXTT3=
EXTT4=
EXTT5=
EXTT6=
EXTT7=
EXTT8=
EXTT9=
EXTT10=
EXTT11=
EXTT12=
EXTT13=
PLAYORDER=
